<svg xmlns="http://www.w3.org/2000/svg" width="41.363" height="34.999" viewBox="0 0 41.363 34.999"><g transform="translate(-448.5 -130)"><path d="M360.724,437.768a2.426,2.426,0,1,0,.711-1.715A2.336,2.336,0,0,0,360.724,437.768Z" transform="translate(121.863 -275.193)" fill="#1a83d3"/><path d="M377.361,417.362a1.492,1.492,0,0,0-1.119-.5H346.389q-.026-.184-.111-.667c-.059-.323-.1-.58-.138-.773a4.637,4.637,0,0,0-.186-.692,2.116,2.116,0,0,0-.323-.642,1.62,1.62,0,0,0-.5-.406,1.469,1.469,0,0,0-.708-.17h-6.363a1.5,1.5,0,0,0-1.119.5,1.706,1.706,0,0,0,0,2.356,1.492,1.492,0,0,0,1.119.5h5.071l4.4,21.538q-.049.1-.509.994t-.733,1.557a2.993,2.993,0,0,0-.273,1.034,1.655,1.655,0,0,0,.472,1.178,1.5,1.5,0,0,0,1.118.5H373.06a1.5,1.5,0,0,0,1.119-.5,1.706,1.706,0,0,0,0-2.356,1.5,1.5,0,0,0-1.119-.5H350.192a5.235,5.235,0,0,0,.6-1.674,2.938,2.938,0,0,0-.063-.576c-.042-.209-.091-.441-.15-.695s-.095-.439-.112-.562l25.952-3.192a1.52,1.52,0,0,0,1.019-.564,1.7,1.7,0,0,0,.4-1.112v-13.4A1.653,1.653,0,0,0,377.361,417.362Z" transform="translate(112.029 -283.514)" fill="#1a83d3"/><path d="M343.747,437.768a2.424,2.424,0,1,0,.71-1.715A2.335,2.335,0,0,0,343.747,437.768Z" transform="translate(114.711 -275.193)" fill="#1a83d3"/></g></svg>