<svg xmlns="http://www.w3.org/2000/svg" width="26.25" height="35" viewBox="0 0 26.25 35"><path d="M256.991,470.626H254.8v-2.917a10.208,10.208,0,1,0-20.416,0v.729a.729.729,0,0,0,.728.729h2.917a.729.729,0,0,0,.729-.729v-.729a5.833,5.833,0,1,1,11.666,0v2.917H232.2a.728.728,0,0,0-.728.728v18.23a2.92,2.92,0,0,0,2.917,2.917H254.8a2.92,2.92,0,0,0,2.917-2.917v-18.23A.729.729,0,0,0,256.991,470.626Zm-10.212,15.232a.728.728,0,0,1-.725.81h-2.917a.728.728,0,0,1-.725-.81l.46-4.136a2.885,2.885,0,0,1-1.193-2.346,2.916,2.916,0,1,1,5.833,0,2.885,2.885,0,0,1-1.193,2.346Z" transform="translate(-231.471 -457.501)" fill="#1a83d3"/></svg>