<svg xmlns="http://www.w3.org/2000/svg" width="252" height="66.026" viewBox="0 0 252 66.026"><g transform="translate(-20 -124.858)"><path d="M91.665,494.732c-.358.239-.428.65-.594.987q-2.049,4.147-4.06,8.314a.989.989,0,0,1-1.02.641c-3.817-.015-7.633-.007-11.45-.01-.846,0-.878-.1-.5-.863,1.245-2.542,2.465-5.1,3.7-7.643q2.806-5.781,5.622-11.557c1.6-3.269,3.223-6.527,4.829-9.794.467-.948.905-1.912,1.364-2.864a.537.537,0,0,0,.068-.486c-.232-.229-.55-.123-.833-.124q-8.432-.009-16.863,0c-.989,0-.993,0-.993-1.017s.011-2.036,0-3.054c-.008-.554.213-.778.786-.778q16.412.016,32.824.01c.709,0,.767.12.452.765q-2.276,4.656-4.549,9.313c-.908,1.861-1.807,3.728-2.73,5.582a1.442,1.442,0,0,0-.063,1.225c.691,2.124,1.54,4.189,2.289,6.291,1.011,2.836,2.047,5.663,3.087,8.489.7,1.9,1.42,3.792,2.136,5.686.219.579.073.822-.553.823-2.845.006-5.69,0-8.535.006-.494,0-.706-.209-.867-.69-.525-1.571-1.127-3.116-1.7-4.673q-.758-2.07-1.513-4.142A.607.607,0,0,0,91.665,494.732Z" transform="translate(-50.931 -316.571)" fill="#1a83d3"/><path d="M141.4,493.913c1.33,3.51,2.662,7.025,3.987,10.519-.19.316-.469.23-.709.231-3.077.005-6.153-.011-9.229.015a1.054,1.054,0,0,1-1.118-.808q-1.595-4.261-3.208-8.515-1.682-4.452-3.37-8.9c-.72-1.89-1.454-3.775-2.187-5.66a1.028,1.028,0,0,1-.114-.717c.217-.237.487-.164.731-.164,3.053-.005,6.106,0,9.159-.009a.844.844,0,0,1,.977.628c.768,2.164,1.608,4.3,2.425,6.449.17.446.36.883.544,1.332.437-.274,6.242-15.175,6.581-16.807-.242-.257-.561-.153-.846-.154q-10.166-.008-20.331,0c-1.068,0-1.069,0-1.069-1.079q0-1.387,0-2.776c0-.938.074-1.008,1.043-1.009H157.9c.9,0,1.8-.012,2.706,0,.62.011.748.26.526.847-.823,2.172-1.68,4.33-2.464,6.516-.884,2.466-1.9,4.884-2.834,7.333-.728,1.91-1.407,3.84-2.126,5.754-.574,1.528-1.175,3.045-1.764,4.567-.2.514-.408,1.024-.6,1.541a.922.922,0,0,1-1.008.65c-2.683-.02-5.366-.012-8.049-.007A1.056,1.056,0,0,0,141.4,493.913Z" transform="translate(-63.345 -316.572)" fill="#1a83d3"/><path d="M215.71,483.836q0-9.575,0-19.15c0-.955,0-.958.973-.958q5.377,0,10.755,0c.917,0,.993.074.991.987q-.017,7.249-.047,14.5c0,.662.389.659.867.658q9.332-.01,18.664,0c.532,0,1.065.011,1.6,0,.436-.012.639.172.638.613-.005,1.642-.011,3.285,0,4.927.005.611-.4.565-.8.565q-6.314,0-12.629,0-3.712,0-7.424,0c-.809,0-.863.056-.863.871q0,7.91,0,15.82c0,.231,0,.463-.011.693a.617.617,0,0,1-.7.67q-5.689-.013-11.379,0c-.686,0-.631-.445-.631-.9q0-9.472,0-18.942C215.711,484.067,215.711,483.951,215.71,483.836Z" transform="translate(-85.042 -315.923)" fill="#1a83d3"/><path d="M317.924,481.775a21.933,21.933,0,0,1-2.769-1.595q-7.375-4.386-14.728-8.807c-2.2-1.318-4.394-2.636-6.56-4a1.74,1.74,0,0,0-2.153-.046c-4.007,2.466-8.08,4.826-12.124,7.232q-5.8,3.449-11.592,6.908c-.186.11-.345.332-.631.232-.2-.2-.123-.47-.124-.712-.005-2.591.015-5.181-.017-7.771a1.181,1.181,0,0,1,.683-1.153q5.186-3.063,10.357-6.15,4.727-2.814,9.45-5.638a1.447,1.447,0,0,1,.8-.172c2.822,0,5.644.018,8.465-.015a3.164,3.164,0,0,1,1.682.727c3.669,2.179,7.311,4.4,10.967,6.6,2.57,1.547,5.141,3.093,7.727,4.612a1.279,1.279,0,0,1,.731,1.267c-.034,2.567-.014,5.134-.016,7.7A1.313,1.313,0,0,1,317.924,481.775Z" transform="translate(-97.179 -315.064)" fill="#1a83d3"/><path d="M316.114,496.133V510c0,.916-.024.942-.925.943-2.774,0-5.549-.015-8.322.013-.618.006-.79-.207-.789-.8q.022-13.975.011-27.948c0-.8.063-.855.881-.855q4.127,0,8.253,0c.852,0,.89.041.89.912Q316.115,489.2,316.114,496.133Z" transform="translate(-106.333 -320.075)" fill="#1a83d3"/><path d="M282.181,510.715c-.264-.172-.191-.447-.192-.691q0-13.878,0-27.756c0-.809.114-.917.93-.918q4.129,0,8.258,0c.835,0,.921.089.921.909q0,10.443.009,20.886a1.251,1.251,0,0,1-.584,1.156c-2.973,2.076-5.929,4.177-8.892,6.267A.525.525,0,0,1,282.181,510.715Z" transform="translate(-100.656 -320.074)" fill="#1a83d3"/><path d="M188.446,487.845h-11.24c-.9,0-.944-.046-.946-.938,0-1.434.014-2.868-.011-4.3-.011-.627.238-.868.861-.868q11.378.015,22.757,0c.585,0,.842.218.833.818-.021,1.457,0,2.914-.011,4.371,0,.8-.121.917-.934.918Q194.1,487.848,188.446,487.845Z" transform="translate(-75.744 -320.166)" fill="#1b84d3"/><path d="M346.654,476.221q-3.572,0-7.143,0c-.812,0-.867-.057-.87-.865,0-1.318.017-2.636-.009-3.953-.011-.569.2-.773.771-.77q7.246.021,14.494,0c.44,0,.814.08.808.615-.015,1.431.067,2.863-.053,4.3-.047.562-.281.686-.784.683C351.463,476.212,349.059,476.221,346.654,476.221Z" transform="translate(-114.003 -317.55)" fill="#1b84d3"/><path d="M347.321,494.658q-2.911,0-5.822,0c-.829,0-.881-.049-.884-.847,0-1.179.019-2.357-.009-3.535-.013-.578.216-.763.778-.761q6,.023,11.992,0c.59,0,.84.223.829.819-.021,1.131,0,2.264-.006,3.4,0,.824-.1.926-.916.927Q350.3,494.662,347.321,494.658Z" transform="translate(-114.468 -321.998)" fill="#1a83d3"/><path d="M346.947,466.608c-2.081,0-4.161-.015-6.241.01-.592.007-.836-.177-.816-.793.035-1.108.026-2.219,0-3.328-.011-.523.164-.753.717-.751q6.381.018,12.761,0c.5,0,.716.179.708.69-.018,1.156-.021,2.312,0,3.467.011.559-.238.715-.756.71C351.2,466.6,349.073,466.607,346.947,466.608Z" transform="translate(-114.299 -315.456)" fill="#1a83d3"/><path d="M382.106,466.625c1.2.031,2.406-.005,3.609.018.531.011.759-.179.748-.724-.022-1.04-.027-2.082,0-3.122.016-.586-.231-.765-.788-.751-1.157.028-2.314.008-3.47.008-.878,0-.908-.029-.912-.883,0-.139-.008-.278,0-.417.031-.476-.194-.662-.663-.659q-2.6.017-5.2,0c-.469,0-.694.173-.662.652.014.208-.011.417.005.624.04.513-.2.695-.7.69q-2.81-.025-5.621,0c-.482,0-.688-.172-.649-.649.014-.161-.015-.326.006-.485.083-.645-.2-.851-.833-.837-1.5.033-3.007.01-4.511.01-1.242,0-1.261,0-1.231,1.217.014.576-.194.768-.772.749-1.2-.039-2.406.009-3.609-.023-.592-.015-.842.179-.82.794.034.994.04,1.99,0,2.984-.027.657.244.842.863.824,1.248-.036,2.5-.005,3.747-.017.421,0,.66.128.643.6-.017.432-.135.722-.648.669-.459-.048-.926-.038-1.379-.116a.845.845,0,0,0-1.026.475c-.595,1.145-1.208,2.282-1.815,3.421l-2.032,3.81a6.222,6.222,0,0,0-1.017-.248q-6,.022-12.007,0c-.589,0-.766.241-.754.792.025,1.086.008,2.174.008,3.262,0,1.06,0,1.061,1.038,1.117.53.029,1.061.082,1.591.077,1.313-.012,2.633-.146,3.938-.058,2.01.135,4.016-.152,6.023.054.567.058,1.012-.138,1-.842-.008-.353.17-.495.534-.428a13.914,13.914,0,0,0,1.913.3c.658.028.8.32.794.917-.027,2.2-.012,4.4-.011,6.594,0,.988.011,1,1.017,1l27,0c.138,0,.277,0,.417,0,.406.012.593-.185.59-.589,0-.67.005-1.342,0-2.013-.005-.814-.053-.861-.868-.862q-3.505,0-7.01,0c-1.54,0-1.457.159-1.451-1.468,0-.872.041-.913.892-.913q3.539,0,7.079,0c1.369,0,1.369,0,1.359-1.346-.007-.848-.042-.884-.917-.885q-3.54,0-7.079,0c-1.346,0-1.319,0-1.343-1.373-.011-.646.223-.842.852-.835,2.383.027,4.765.011,7.149.011,1.353,0,1.353,0,1.339-1.367-.008-.81-.057-.864-.868-.864q-3.61,0-7.218,0c-1.241,0-1.241,0-1.24-1.257,0-.956.022-.978.968-.977q3.748,0,7.5,0c.8,0,.856-.055.861-.873q.007-.868,0-1.735c-.005-.809-.04-.843-.88-.844q-3.332,0-6.663,0a1.172,1.172,0,0,1-.738-.1c-.111-.912.224-1.319,1.087-1.322.347,0,.694,0,1.041,0,.9,0,1-.07.975-1C381.261,466.776,381.524,466.609,382.106,466.625Zm-13.032,17.928c-1.456.015-2.912-.014-4.368.014-.575.011-.775-.207-.764-.774.037-1.82-.193-1.614,1.567-1.623.624,0,1.247,0,1.872,0,.9,0,1.8.012,2.7-.005.478-.008.66.194.653.664C370.713,484.882,370.92,484.534,369.074,484.553Zm.281-4.612c-.346,0-.693,0-1.039,0h-1.039c-.9,0-1.8-.008-2.7,0-.434.006-.633-.166-.629-.613.014-1.832-.141-1.581,1.523-1.589,1.5-.007,3,.015,4.5-.012.571-.011.778.19.769.763C370.715,480.125,370.845,479.934,369.355,479.941Zm-.046-4.426c-.67,0-1.339,0-2.009,0-.9,0-1.8-.012-2.7,0-.475.008-.66-.193-.655-.663.015-1.811-.131-1.572,1.539-1.576,1.478,0,2.956.016,4.433-.013.579-.011.842.149.829.777C370.711,475.687,370.875,475.508,369.309,475.515Zm5.46-8.147c-.059.625-.485.493-.871.462-.137-.011-.272-.061-.409-.067-1.1-.051-1.279-.173-1.6.978-.31,1.108-.382,1.088-1.556,1.088q-2.738,0-5.477,0a1.12,1.12,0,0,1-.715-.114c.216-1.023.541-1.309,1.457-1.309.462,0,.925-.007,1.387,0,.567.008.839-.219.828-.83-.017-.94.011-.941.976-.941,1.734,0,3.467.013,5.2-.008C374.533,466.62,374.827,466.762,374.769,467.368Z" transform="translate(-114.468 -315.065)" fill="#1a83d3"/><path d="M391.647,510.451c.027-.658-.326-.884-.849-1.069-1.993-.706-3.979-1.43-5.967-2.149a.355.355,0,0,1-.251-.236c.016-.234.19-.332.394-.407,2.006-.74,4-1.5,6.022-2.205a.814.814,0,0,0,.641-.907c-.011-1.341,0-2.682,0-4.024,0-1.273,0-1.273-1.228-1.245-.116,0-.232,0-.347,0H363.693c-.162,0-.324.005-.485,0a.514.514,0,0,0-.6.588q.006,2.428,0,4.857a.627.627,0,0,0,.41.657c1.817.664,3.645,1.3,5.447,2,.436.171,1.02.127,1.292.635-.123.289-.384.3-.589.371-1.9.7-3.8,1.4-5.705,2.08a1.1,1.1,0,0,0-.871,1.219c.053,1.061.01,2.127.014,3.191,0,.846.158.959.937.675q3.335-1.218,6.669-2.446c2.133-.788,4.265-1.579,6.39-2.386a1.456,1.456,0,0,1,1.136.047c.834.339,1.661.7,2.515.981,2.512.826,4.961,1.825,7.451,2.711,1.233.439,2.461.889,3.7,1.336a.856.856,0,0,0,.224-.738C391.635,512.81,391.6,511.629,391.647,510.451Zm-14.621-6.172a6.806,6.806,0,0,1-2.9-1.027l.062-.213H380.1l.05.208A6.708,6.708,0,0,1,377.026,504.28Z" transform="translate(-119.649 -324.045)" fill="#1a83d3"/><path d="M354.314,507.25c0-2.753-.005-5.505.007-8.258,0-.511-.107-.891-.7-.878-2,.041-4,.016-6.007,0-2.281-.021-4.563.047-6.845.075-.814.01-.866.053-.867.864q-.006,3.158,0,6.315c0,2.128.012,4.256-.008,6.384-.005.565.193.778.767.776q6.42-.022,12.838,0c.595,0,.831-.245.823-.833C354.3,510.211,354.314,508.73,354.314,507.25Zm-5.158-.385c.034.352-.183.546-.563.537-.508-.011-1.017,0-1.525,0s-1.017-.006-1.524,0a.525.525,0,0,1-.605-.587q-.01-1.489-.006-2.98c0-.436.245-.618.662-.617.97,0,1.941.006,2.911,0,.468,0,.7.228.669.678A17.716,17.716,0,0,0,349.156,506.865Z" transform="translate(-114.3 -324.023)" fill="#1a83d3"/><path d="M6.944-10.43A16.2,16.2,0,0,0,12.7-5.39a7.634,7.634,0,0,1,.84-1.19,13.658,13.658,0,0,1-5.964-5.194H6.188A13.967,13.967,0,0,1,.5-6.384a4.843,4.843,0,0,1,.812,1.078A15.871,15.871,0,0,0,6.944-10.43ZM8.722-6.79V1.092H10.08V-6.79Zm-4.858.07v1.806A5.237,5.237,0,0,1,1.078.182a4.861,4.861,0,0,1,1.064.924C4.9-.546,5.194-2.912,5.194-4.886V-6.72Zm15.4-4.564H15.778v1.022h3.486Zm.392,1.848H15.12V-8.4h4.536ZM18.228-2.73V-.714H16.7V-2.73Zm1.05-1.05H15.666v4.7H16.7V.308h2.576Zm-3.584-.868h3.6V-5.67h-3.6Zm0-2.884v1.008h3.6V-7.532ZM24.78-10.01v.644l-.8-.14a7.7,7.7,0,0,1-.406,1.022H21.9c.14-.266.266-.532.392-.8H22.9v-.728ZM23.59-7.084H21.91V-7.63h1.68Zm0,1.274H21.91v-.56h1.68Zm0,1.288H21.91V-5.11h1.68Zm-2.828.854H27.79v-.854H24.724V-5.11h2.422v-.7H24.724v-.56h2.422v-.714H24.724V-7.63h2.73v-.854H24.738c.14-.238.28-.518.42-.8h.812v-.728h1.848v-.938H25.97v-.812H24.78v.812H22.9v-.812H21.742v.812h-1.9v.938h1.9v.574l-.5-.126a7.323,7.323,0,0,1-1.946,2.7,5.235,5.235,0,0,1,.854.686,6.962,6.962,0,0,0,.616-.658ZM25.55-2.184A6.3,6.3,0,0,1,23.9-1.036a5.75,5.75,0,0,1-1.652-1.148Zm1.064-1.008-.21.042H20.048v.966h1.778l-.742.294A6.769,6.769,0,0,0,22.652-.532,16.174,16.174,0,0,1,19.376.14a3.776,3.776,0,0,1,.532.994A17.366,17.366,0,0,0,23.856.112a13.339,13.339,0,0,0,3.472.98A4.327,4.327,0,0,1,28.07.07a16.622,16.622,0,0,1-2.926-.616A6.242,6.242,0,0,0,27.37-2.8Zm3.164-.168h3.7V-4.55h-3.7Zm13.664-.686v1.218H41.664V-4.046Zm3.066,1.218H44.632V-4.046h1.876ZM44.632-.574v-1.26h1.876v1.26Zm-2.968-1.26h1.778v1.26H41.664Zm-1.2-2.6c-.392-.35-1.176-1.064-1.6-1.4a13.657,13.657,0,0,0,1.526-2.9l-.728-.476-.224.042H38.57v-2.576H37.282V-9.17H35.49v1.176h3.3a11.076,11.076,0,0,1-3.808,4.3,5.743,5.743,0,0,1,.63,1.2A11.756,11.756,0,0,0,37.282-3.92V1.092H38.57V-4.7c.462.49.994,1.106,1.274,1.47l.616-.854v5.18h1.2V.476h4.844v.588h1.246V-5.124H40.46ZM45.934-6.9h-3.6V-8.2h3.6Zm-4.76-2.324v3.332h5.964V-9.226Zm-.784-1.89v1.106h7.434v-1.106ZM55.524-3.99c-.294-.294-1.372-1.316-1.988-1.848a13.49,13.49,0,0,0,1.568-2.9l-.728-.476-.224.042h-.91v-2.576H51.968V-9.17H50.05v1.176h3.444a11.186,11.186,0,0,1-3.948,4.3,6.112,6.112,0,0,1,.63,1.2,12.249,12.249,0,0,0,1.792-1.5v5.1h1.274V-4.62a18.879,18.879,0,0,1,1.47,1.708ZM59.906-.42V-5.558h2.478V-6.8H59.906v-4.732H58.59V-.42H57.036V-8.5H55.748V-.42H54.432V.84H62.72V-.42Zm13.076.364c-.742,0-.854-.1-.854-.644V-4.354l1.064-.5V-1.33H74.3V-5.376l1.218-.574c0,1.526-.014,2.548-.042,2.716-.042.2-.112.238-.252.238-.112,0-.392,0-.616-.014a3.154,3.154,0,0,1,.252.98,3.157,3.157,0,0,0,1.092-.112A.849.849,0,0,0,76.566-3c.056-.392.056-2,.056-3.99l.056-.182-.8-.294-.224.154-.112.084L74.3-6.65v-1.6H73.192v2.114l-1.064.49V-7.21H71.05A10.043,10.043,0,0,0,71.9-8.694H77.1v-1.19h-4.7c.182-.518.336-1.064.476-1.61l-1.288-.266a11.012,11.012,0,0,1-1.26,3.276V-9.548h-2.31v-2.184H66.766v2.184H64.442v1.2h1.442C65.828-5,65.674-1.708,64.274.21a3.593,3.593,0,0,1,.952.882c1.162-1.582,1.6-3.92,1.778-6.51h1.414c-.056,3.612-.14,4.914-.35,5.194a.4.4,0,0,1-.42.2c-.21,0-.658,0-1.176-.042a3.086,3.086,0,0,1,.336,1.162,9.211,9.211,0,0,0,1.456-.042,1.014,1.014,0,0,0,.84-.5c.364-.476.434-2.072.518-6.608.014-.168.014-.546.014-.546H67.074c.014-.574.028-1.148.042-1.736h3.122a5.6,5.6,0,0,1-.686.9,8.848,8.848,0,0,1,.98.91,5.717,5.717,0,0,0,.434-.546V-5.1l-1.2.56.476,1.078.728-.35V-.714c0,1.4.392,1.764,1.9,1.764h2.646c1.246,0,1.61-.49,1.764-2.184A3.351,3.351,0,0,1,76.2-1.6c-.07,1.288-.182,1.54-.77,1.54ZM83.776-7.532h-4.2v1.008h4.2v-.182a4.894,4.894,0,0,1,.938.826,4.232,4.232,0,0,0,1.764-3.766v-.518h2.016v2.142c0,1.148.294,1.47,1.26,1.47h.9c.812,0,1.134-.434,1.218-2.1A2.925,2.925,0,0,1,90.8-9.128c-.028,1.288-.084,1.47-.294,1.47h-.546c-.2,0-.224-.056-.224-.378v-3.29H85.246V-9.66a3.2,3.2,0,0,1-1.47,2.926Zm-4.2,2.884h4.2V-5.67h-4.2Zm4.158-6.636h-4.1v1.022h4.1Zm.532,1.848H78.918V-8.4h5.348ZM82.628-2.73V-.714h-1.96V-2.73Zm1.134-1.05H79.548v4.7h1.12V.336h3.094Zm6.5-2.03-.238.042H84.434v1.19h5.012a6.9,6.9,0,0,1-1.61,2.352,7.431,7.431,0,0,1-1.61-2.338L85.064-4.2a9.912,9.912,0,0,0,1.82,2.772A9.574,9.574,0,0,1,83.776-.056a4.678,4.678,0,0,1,.7,1.148A10.5,10.5,0,0,0,87.85-.546a9.388,9.388,0,0,0,3.206,1.638,5.1,5.1,0,0,1,.84-1.12A9.281,9.281,0,0,1,88.83-1.4,9.062,9.062,0,0,0,91.1-5.488Zm11.172.476v2.352H98.392V-5.334Zm1.2,3.514V-6.482H97.2V-.84h1.19v-.98Zm2.982-7.56H99.554c.35-.644.714-1.414,1.022-2.128l-1.652-.266a17.9,17.9,0,0,1-.812,2.394H94.29V1.092h1.288v-9.2h8.736V-.518c0,.238-.084.308-.364.322s-1.232.014-2.156-.028a4.971,4.971,0,0,1,.448,1.33,9.111,9.111,0,0,0,2.674-.224c.518-.224.7-.63.7-1.386Zm4-1.526a9.926,9.926,0,0,1-.084,1.036,38.022,38.022,0,0,0-.49,5.544A15.315,15.315,0,0,0,109.8.112l1.2-.14c0-.168-.028-.378-.028-.518a2.626,2.626,0,0,1,.07-.63,32.746,32.746,0,0,1,.924-3.206l-.728-.462c-.238.616-.5,1.372-.7,1.89a18.236,18.236,0,0,1,.42-6.79c.07-.28.182-.714.28-1.008Zm10.71,2.464a19.943,19.943,0,0,1-2.17.294c-.014-.826-.028-1.638-.014-1.946a8.225,8.225,0,0,1,.056-.868h-1.61a6.63,6.63,0,0,1,.14.868c.028.364.056,1.19.07,2.03-.56.014-1.134.028-1.666.028a15.144,15.144,0,0,1-2.17-.14v1.4c.644.042,1.554.084,2.2.084.546,0,1.106-.014,1.666-.028v.434c0,2.534-.14,3.948-1.442,5.152a4.912,4.912,0,0,1-1.47.98L115.206.854c2.856-1.75,2.968-3.906,2.968-7.126V-6.79c.812-.056,1.554-.126,2.156-.21ZM134.19-9.52a20.293,20.293,0,0,0-1.134-1.918l-.9.378a16.709,16.709,0,0,1,1.106,1.932Zm-3.3.532c.448,0,.952.028,1.4.056v-1.442a11.74,11.74,0,0,1-1.4.084h-4.732a10.718,10.718,0,0,1-1.358-.084v1.442c.378-.028.9-.056,1.372-.056Zm-6.468,2.226a12.488,12.488,0,0,1-1.274-.07v1.456c.392-.028.854-.042,1.274-.042h4.046a6.371,6.371,0,0,1-.84,3.3,5.83,5.83,0,0,1-2.59,2.086l1.3.952a6.893,6.893,0,0,0,2.772-2.618,8.593,8.593,0,0,0,.868-3.724h3.6c.364,0,.854.014,1.176.028V-6.832a8.8,8.8,0,0,1-1.176.07Zm9.324-4.886A13.114,13.114,0,0,1,134.89-9.73l.91-.392a15.434,15.434,0,0,0-1.162-1.9Zm5.8,1.036c.028.294.056.784.056,1.036v4.69c0,.406-.056.9-.07,1.134h1.638c-.028-.28-.056-.77-.056-1.134v-4.69c0-.392.028-.742.056-1.036Zm6.454-.112a10.823,10.823,0,0,1,.084,1.288v2.408c0,2.45-.182,3.542-1.162,4.648a6.481,6.481,0,0,1-3.388,1.834L142.688.672a7.779,7.779,0,0,0,3.346-2.044c1.036-1.176,1.54-2.366,1.54-5.572V-9.436c0-.5.028-.924.056-1.288Zm15.974-.294-.91.378a16.837,16.837,0,0,1,1.12,1.932l.91-.392A17.561,17.561,0,0,0,161.966-11.018Zm1.582-.6-.9.378A15.612,15.612,0,0,1,163.8-9.31l.9-.406A20.228,20.228,0,0,0,163.548-11.62Zm-9.492,7.35a18.291,18.291,0,0,1-2.17,3.836l1.526.644A20.309,20.309,0,0,0,155.47-3.7,29.846,29.846,0,0,0,156.7-8.008c.07-.308.2-.84.294-1.19l-1.6-.322A20.519,20.519,0,0,1,154.056-4.27Zm6.9-.434A47.761,47.761,0,0,1,162.484.168l1.6-.518c-.378-1.316-1.12-3.5-1.652-4.844-.56-1.414-1.5-3.444-2.058-4.494l-1.442.476A39.671,39.671,0,0,1,160.958-4.7Zm7.7-5.908c.028.294.056.784.056,1.036v4.69c0,.406-.056.9-.07,1.134h1.638c-.028-.28-.056-.77-.056-1.134v-4.69c0-.392.028-.742.056-1.036Zm6.454-.112a10.823,10.823,0,0,1,.084,1.288v2.408c0,2.45-.182,3.542-1.162,4.648a6.481,6.481,0,0,1-3.388,1.834L171.808.672a7.779,7.779,0,0,0,3.346-2.044c1.036-1.176,1.54-2.366,1.54-5.572V-9.436c0-.5.028-.924.056-1.288Zm6.538,6.2c.462-.028,1.288-.056,2.072-.056h7.616c.616,0,1.246.042,1.554.056V-6.244c-.336.028-.882.084-1.568.084h-7.6c-.756,0-1.624-.042-2.072-.084Zm23.156-3.64V-9.786A9.128,9.128,0,0,1,204.89-11h-1.582a9.666,9.666,0,0,1,.07,1.218v1.624h-3.7v-1.61a7.542,7.542,0,0,1,.084-1.12H198.2c.014.182.07.63.07,1.12v1.61H196.9a11.381,11.381,0,0,1-1.456-.1v1.5c.224-.014.8-.042,1.456-.042h1.372v2.1c0,.574-.056,1.162-.07,1.358h1.54c-.014-.2-.056-.784-.056-1.358V-6.8h3.7v.56c0,3.71-1.232,4.914-3.85,5.88l1.19,1.12c3.276-1.47,4.088-3.472,4.088-7.084V-6.8h1.33c.658,0,1.162.014,1.386.042V-8.246a7.921,7.921,0,0,1-1.4.084Zm5.684,3.64c.462-.028,1.288-.056,2.072-.056h7.616c.616,0,1.246.042,1.554.056V-6.244c-.336.028-.882.084-1.568.084h-7.6c-.756,0-1.624-.042-2.072-.084Zm24.57-4.69a20.286,20.286,0,0,0-1.134-1.918l-.9.378a19.189,19.189,0,0,1,1.12,1.932Zm-7.392,4.27a54.073,54.073,0,0,0,5.614-1.778c.448-.154,1.008-.406,1.47-.588l-.616-1.414a7.733,7.733,0,0,1-1.358.686,38.444,38.444,0,0,1-5.11,1.638v-2.94a9.215,9.215,0,0,1,.084-1.26h-1.638a8.009,8.009,0,0,1,.1,1.26v7.672c0,1.176.644,1.736,1.778,1.946a15.255,15.255,0,0,0,2.3.14,40.587,40.587,0,0,0,4.9-.28V-1.47a23.146,23.146,0,0,1-4.816.462,12.073,12.073,0,0,1-1.75-.1c-.658-.14-.952-.308-.952-.98Zm6.958-6.4a13.043,13.043,0,0,1,1.134,1.918l.91-.392a18.583,18.583,0,0,0-1.148-1.9Zm14.112,1.246a4.247,4.247,0,0,1-1.218.14h-5.194a14.979,14.979,0,0,1-1.526-.1V-8.47c.224-.014.98-.084,1.526-.084h5.138a11.518,11.518,0,0,1-2.226,3.7,15.731,15.731,0,0,1-5.754,4.1L240.618.42a17.917,17.917,0,0,0,5.39-4.018A30.282,30.282,0,0,1,249.7.49L250.95-.6a37.214,37.214,0,0,0-4-4.1,19.162,19.162,0,0,0,2.3-3.99,4.832,4.832,0,0,1,.406-.728Z" transform="translate(20 136.884)" fill="#231815"/></g></svg>